<svg width="24" height="24" viewBox="0 0 24 24" fill="none" xmlns="http://www.w3.org/2000/svg">
  <rect width="24" height="24" rx="12" fill="#0EA5E9"/>
  <path d="M7 14.5C7 14.5 8.5 13 12 13C15.5 13 17 14.5 17 14.5" stroke="white" stroke-width="2" stroke-linecap="round"/>
  <path d="M12 6C9.23858 6 7 8.23858 7 11V16C7 16.5523 7.44772 17 8 17H16C16.5523 17 17 16.5523 17 16V11C17 8.23858 14.7614 6 12 6Z" stroke="white" stroke-width="2"/>
  <path d="M10 11.5C10 12.0523 9.55228 12.5 9 12.5C8.44772 12.5 8 12.0523 8 11.5C8 10.9477 8.44772 10.5 9 10.5C9.55228 10.5 10 10.9477 10 11.5Z" fill="white"/>
  <path d="M16 11.5C16 12.0523 15.5523 12.5 15 12.5C14.4477 12.5 14 12.0523 14 11.5C14 10.9477 14.4477 10.5 15 10.5C15.5523 10.5 16 10.9477 16 11.5Z" fill="white"/>
  <path d="M9 7.5V6" stroke="white" stroke-width="2" stroke-linecap="round"/>
  <path d="M12 7.5V6" stroke="white" stroke-width="2" stroke-linecap="round"/>
  <path d="M15 7.5V6" stroke="white" stroke-width="2" stroke-linecap="round"/>
</svg>